<svg id="visual" viewBox="0 0 960 300" width="960" height="300" xmlns="http://www.w3.org/2000/svg" xmlns:xlink="http://www.w3.org/1999/xlink" version="1.1"><rect x="0" y="0" width="960" height="300" fill="#202731"></rect><path d="M0 90L22.8 92.5C45.7 95 91.3 100 137 104.8C182.7 109.7 228.3 114.3 274 109.3C319.7 104.3 365.3 89.7 411.2 83.3C457 77 503 79 548.8 81.7C594.7 84.3 640.3 87.7 686 88.7C731.7 89.7 777.3 88.3 823 93.8C868.7 99.3 914.3 111.7 937.2 117.8L960 124L960 0L937.2 0C914.3 0 868.7 0 823 0C777.3 0 731.7 0 686 0C640.3 0 594.7 0 548.8 0C503 0 457 0 411.2 0C365.3 0 319.7 0 274 0C228.3 0 182.7 0 137 0C91.3 0 45.7 0 22.8 0L0 0Z" fill="#ff6f61"></path><path d="M0 96L22.8 92.2C45.7 88.3 91.3 80.7 137 77.8C182.7 75 228.3 77 274 79.2C319.7 81.3 365.3 83.7 411.2 81C457 78.3 503 70.7 548.8 72.7C594.7 74.7 640.3 86.3 686 91.7C731.7 97 777.3 96 823 92.5C868.7 89 914.3 83 937.2 80L960 77L960 0L937.2 0C914.3 0 868.7 0 823 0C777.3 0 731.7 0 686 0C640.3 0 594.7 0 548.8 0C503 0 457 0 411.2 0C365.3 0 319.7 0 274 0C228.3 0 182.7 0 137 0C91.3 0 45.7 0 22.8 0L0 0Z" fill="#f76455"></path><path d="M0 58L22.8 56.2C45.7 54.3 91.3 50.7 137 50C182.7 49.3 228.3 51.7 274 51.7C319.7 51.7 365.3 49.3 411.2 47.7C457 46 503 45 548.8 47.8C594.7 50.7 640.3 57.3 686 63.3C731.7 69.3 777.3 74.7 823 75.8C868.7 77 914.3 74 937.2 72.5L960 71L960 0L937.2 0C914.3 0 868.7 0 823 0C777.3 0 731.7 0 686 0C640.3 0 594.7 0 548.8 0C503 0 457 0 411.2 0C365.3 0 319.7 0 274 0C228.3 0 182.7 0 137 0C91.3 0 45.7 0 22.8 0L0 0Z" fill="#ee5849"></path><path d="M0 57L22.8 54.2C45.7 51.3 91.3 45.7 137 44.8C182.7 44 228.3 48 274 50.8C319.7 53.7 365.3 55.3 411.2 56.3C457 57.3 503 57.7 548.8 52.7C594.7 47.7 640.3 37.3 686 33C731.7 28.7 777.3 30.3 823 32.2C868.7 34 914.3 36 937.2 37L960 38L960 0L937.2 0C914.3 0 868.7 0 823 0C777.3 0 731.7 0 686 0C640.3 0 594.7 0 548.8 0C503 0 457 0 411.2 0C365.3 0 319.7 0 274 0C228.3 0 182.7 0 137 0C91.3 0 45.7 0 22.8 0L0 0Z" fill="#e64c3d"></path><path d="M0 35L22.8 31.2C45.7 27.3 91.3 19.7 137 18.2C182.7 16.7 228.3 21.3 274 23.3C319.7 25.3 365.3 24.7 411.2 23.5C457 22.3 503 20.7 548.8 19.7C594.7 18.7 640.3 18.3 686 18.2C731.7 18 777.3 18 823 18.3C868.7 18.7 914.3 19.3 937.2 19.7L960 20L960 0L937.2 0C914.3 0 868.7 0 823 0C777.3 0 731.7 0 686 0C640.3 0 594.7 0 548.8 0C503 0 457 0 411.2 0C365.3 0 319.7 0 274 0C228.3 0 182.7 0 137 0C91.3 0 45.7 0 22.8 0L0 0Z" fill="#dd3f31"></path></svg>