<svg id="visual" viewBox="0 0 960 300" width="960" height="300" xmlns="http://www.w3.org/2000/svg" xmlns:xlink="http://www.w3.org/1999/xlink" version="1.1"><rect x="0" y="0" width="960" height="300" fill="#202731"></rect><path d="M0 89L22.8 89.5C45.7 90 91.3 91 137 95.2C182.7 99.3 228.3 106.7 274 105.5C319.7 104.3 365.3 94.7 411.2 96C457 97.3 503 109.7 548.8 110.2C594.7 110.7 640.3 99.3 686 98.8C731.7 98.3 777.3 108.7 823 115.2C868.7 121.7 914.3 124.3 937.2 125.7L960 127L960 0L937.2 0C914.3 0 868.7 0 823 0C777.3 0 731.7 0 686 0C640.3 0 594.7 0 548.8 0C503 0 457 0 411.2 0C365.3 0 319.7 0 274 0C228.3 0 182.7 0 137 0C91.3 0 45.7 0 22.8 0L0 0Z" fill="#822ad5"></path><path d="M0 103L22.8 104.5C45.7 106 91.3 109 137 105.5C182.7 102 228.3 92 274 90.7C319.7 89.3 365.3 96.7 411.2 96.5C457 96.3 503 88.7 548.8 83.7C594.7 78.7 640.3 76.3 686 77.8C731.7 79.3 777.3 84.7 823 90.2C868.7 95.7 914.3 101.3 937.2 104.2L960 107L960 0L937.2 0C914.3 0 868.7 0 823 0C777.3 0 731.7 0 686 0C640.3 0 594.7 0 548.8 0C503 0 457 0 411.2 0C365.3 0 319.7 0 274 0C228.3 0 182.7 0 137 0C91.3 0 45.7 0 22.8 0L0 0Z" fill="#9021c9"></path><path d="M0 71L22.8 71C45.7 71 91.3 71 137 76.3C182.7 81.7 228.3 92.3 274 94C319.7 95.7 365.3 88.3 411.2 85.2C457 82 503 83 548.8 85.3C594.7 87.7 640.3 91.3 686 90.7C731.7 90 777.3 85 823 82.7C868.7 80.3 914.3 80.7 937.2 80.8L960 81L960 0L937.2 0C914.3 0 868.7 0 823 0C777.3 0 731.7 0 686 0C640.3 0 594.7 0 548.8 0C503 0 457 0 411.2 0C365.3 0 319.7 0 274 0C228.3 0 182.7 0 137 0C91.3 0 45.7 0 22.8 0L0 0Z" fill="#9b17bd"></path><path d="M0 86L22.8 84C45.7 82 91.3 78 137 78.2C182.7 78.3 228.3 82.7 274 81.3C319.7 80 365.3 73 411.2 70.7C457 68.3 503 70.7 548.8 71C594.7 71.3 640.3 69.7 686 68C731.7 66.3 777.3 64.7 823 66.3C868.7 68 914.3 73 937.2 75.5L960 78L960 0L937.2 0C914.3 0 868.7 0 823 0C777.3 0 731.7 0 686 0C640.3 0 594.7 0 548.8 0C503 0 457 0 411.2 0C365.3 0 319.7 0 274 0C228.3 0 182.7 0 137 0C91.3 0 45.7 0 22.8 0L0 0Z" fill="#a30db2"></path><path d="M0 69L22.8 65.7C45.7 62.3 91.3 55.7 137 54.8C182.7 54 228.3 59 274 60.7C319.7 62.3 365.3 60.7 411.2 61C457 61.3 503 63.7 548.8 65.5C594.7 67.3 640.3 68.7 686 70.8C731.7 73 777.3 76 823 75.2C868.7 74.3 914.3 69.7 937.2 67.3L960 65L960 0L937.2 0C914.3 0 868.7 0 823 0C777.3 0 731.7 0 686 0C640.3 0 594.7 0 548.8 0C503 0 457 0 411.2 0C365.3 0 319.7 0 274 0C228.3 0 182.7 0 137 0C91.3 0 45.7 0 22.8 0L0 0Z" fill="#a903a6"></path><path d="M0 63L22.8 60.8C45.7 58.7 91.3 54.3 137 53.7C182.7 53 228.3 56 274 57.2C319.7 58.3 365.3 57.7 411.2 55C457 52.3 503 47.7 548.8 46C594.7 44.3 640.3 45.7 686 47.5C731.7 49.3 777.3 51.7 823 52.2C868.7 52.7 914.3 51.3 937.2 50.7L960 50L960 0L937.2 0C914.3 0 868.7 0 823 0C777.3 0 731.7 0 686 0C640.3 0 594.7 0 548.8 0C503 0 457 0 411.2 0C365.3 0 319.7 0 274 0C228.3 0 182.7 0 137 0C91.3 0 45.7 0 22.8 0L0 0Z" fill="#ae009c"></path><path d="M0 54L22.8 53.5C45.7 53 91.3 52 137 49.5C182.7 47 228.3 43 274 40.7C319.7 38.3 365.3 37.7 411.2 38.3C457 39 503 41 548.8 43.8C594.7 46.7 640.3 50.3 686 48.5C731.7 46.7 777.3 39.3 823 39.2C868.7 39 914.3 46 937.2 49.5L960 53L960 0L937.2 0C914.3 0 868.7 0 823 0C777.3 0 731.7 0 686 0C640.3 0 594.7 0 548.8 0C503 0 457 0 411.2 0C365.3 0 319.7 0 274 0C228.3 0 182.7 0 137 0C91.3 0 45.7 0 22.8 0L0 0Z" fill="#b10091"></path><path d="M0 24L22.8 25C45.7 26 91.3 28 137 30.3C182.7 32.7 228.3 35.3 274 36.8C319.7 38.3 365.3 38.7 411.2 36.5C457 34.3 503 29.7 548.8 28C594.7 26.3 640.3 27.7 686 28.8C731.7 30 777.3 31 823 33C868.7 35 914.3 38 937.2 39.5L960 41L960 0L937.2 0C914.3 0 868.7 0 823 0C777.3 0 731.7 0 686 0C640.3 0 594.7 0 548.8 0C503 0 457 0 411.2 0C365.3 0 319.7 0 274 0C228.3 0 182.7 0 137 0C91.3 0 45.7 0 22.8 0L0 0Z" fill="#b30087"></path><path d="M0 28L22.8 26.8C45.7 25.7 91.3 23.3 137 21.5C182.7 19.7 228.3 18.3 274 18.7C319.7 19 365.3 21 411.2 20.7C457 20.3 503 17.7 548.8 17C594.7 16.3 640.3 17.7 686 20C731.7 22.3 777.3 25.7 823 26.2C868.7 26.7 914.3 24.3 937.2 23.2L960 22L960 0L937.2 0C914.3 0 868.7 0 823 0C777.3 0 731.7 0 686 0C640.3 0 594.7 0 548.8 0C503 0 457 0 411.2 0C365.3 0 319.7 0 274 0C228.3 0 182.7 0 137 0C91.3 0 45.7 0 22.8 0L0 0Z" fill="#b4007e"></path><path d="M0 7L22.8 8.7C45.7 10.3 91.3 13.7 137 13.5C182.7 13.3 228.3 9.7 274 8.5C319.7 7.3 365.3 8.7 411.2 9.5C457 10.3 503 10.7 548.8 11C594.7 11.3 640.3 11.7 686 13C731.7 14.3 777.3 16.7 823 15.8C868.7 15 914.3 11 937.2 9L960 7L960 0L937.2 0C914.3 0 868.7 0 823 0C777.3 0 731.7 0 686 0C640.3 0 594.7 0 548.8 0C503 0 457 0 411.2 0C365.3 0 319.7 0 274 0C228.3 0 182.7 0 137 0C91.3 0 45.7 0 22.8 0L0 0Z" fill="#b40575"></path></svg>